<svg xmlns="http://www.w3.org/2000/svg" width="24" height="24" viewBox="0 0 24 24"><path d="M24,1.56A1.84,1.84,0,0,0,22.35.09l-.18,0H20.25L19,.18a16,16,0,0,0-10.21,5c-.35.36-.67.74-1,1.1a.53.53,0,0,1-.33.17L4,6.7a1.68,1.68,0,0,0-1.3.73C1.88,8.68,1.06,9.94.23,11.2a2.77,2.77,0,0,0-.18.43v.46a1.2,1.2,0,0,0,.59.83,4.57,4.57,0,0,0,1.1.29c.73.13,1.48.24,2.21.35l.1,0c0,.21,0,.41,0,.61a1.92,1.92,0,0,0,.56,1.21l4.08,4.07a1.79,1.79,0,0,0,1.64.54h.17c.06.37.13.73.18,1.1.1.59.19,1.19.28,1.78a1.28,1.28,0,0,0,1,1.12l.06,0h.47c.66-.41,1.33-.8,2-1.22l2-1.32A1.93,1.93,0,0,0,17.41,20c.08-1.07.17-2.15.25-3.22a.55.55,0,0,1,.23-.43,17.82,17.82,0,0,0,4.21-5.09,16.27,16.27,0,0,0,1.76-5.64c.08-.58.13-1.17.19-1.75V1.92C24,1.8,24,1.68,24,1.56ZM4.43,12.21l-2.89-.44.33-.5c.63-1,1.26-1.92,1.9-2.87a.6.6,0,0,1,.37-.28C4.89,8,5.66,8,6.47,7.91A16.16,16.16,0,0,0,4.43,12.21Zm5.63,6.42a.47.47,0,0,1-.37-.15q-2.05-2-4.08-4.08A.54.54,0,0,1,5.47,14c.14-.67.33-1.33.5-2l0,0,6.18,6.18C11.46,18.31,10.76,18.49,10.06,18.63ZM16,19.92a.51.51,0,0,1-.19.33c-1.14.77-2.29,1.52-3.47,2.31-.15-1-.3-1.93-.45-2.89a16,16,0,0,0,4.3-2.05C16.12,18.43,16.06,19.18,16,19.92Zm6.5-14.74a14.24,14.24,0,0,1-1.64,5.4,16.8,16.8,0,0,1-5.37,5.81c-.54.38-1.14.68-1.71,1a.23.23,0,0,1-.32,0C11.22,15.12,9,12.88,6.73,10.64c-.08-.08-.14-.14-.07-.27a16.81,16.81,0,0,1,7.12-7.26,14.74,14.74,0,0,1,5.6-1.56c.5-.05,1-.08,1.51-.11v0c.36,0,.73,0,1.1,0s.63.14.62.62C22.6,3.12,22.59,4.15,22.49,5.18Z" transform="translate(-0.05 -0.05)"/><path d="M5.73,19.33a.68.68,0,0,0,0-.77.6.6,0,0,0-.68-.31,1,1,0,0,0-.49.27C3.22,19.87,1.86,21.24.5,22.6a6.12,6.12,0,0,0-.45.56v.37a1.07,1.07,0,0,0,.51.52H.94a3.57,3.57,0,0,0,.43-.34l4.19-4.18A1.06,1.06,0,0,0,5.73,19.33Z" transform="translate(-0.05 -0.05)"/><path d="M1.23,19.64c.79-.77,1.58-1.55,2.35-2.35a.7.7,0,0,0-.36-1.15.73.73,0,0,0-.72.25c-.68.69-1.38,1.37-2.06,2.07A4.42,4.42,0,0,0,.05,19v.19l.06.15A.69.69,0,0,0,1.23,19.64Z" transform="translate(-0.05 -0.05)"/><path d="M6.78,20.53c-.78.77-1.55,1.54-2.32,2.32A.69.69,0,0,0,4.75,24l.13.06h.18a1.55,1.55,0,0,0,.4-.23c.78-.76,1.55-1.53,2.31-2.3a.7.7,0,0,0-1-1Z" transform="translate(-0.05 -0.05)"/><path d="M16.5,4.09A3.52,3.52,0,1,0,20,7.62,3.51,3.51,0,0,0,16.5,4.09Zm0,5.62a2.11,2.11,0,1,1,2.13-2.1A2.1,2.1,0,0,1,16.47,9.71Z" transform="translate(-0.05 -0.05)"/></svg>